HIERARCHY
ROOT pelvis
{
  OFFSET 0 100 0
  CHANNELS 6 Xposition Yposition Zposition Zrotation Xrotation Yrotation
  JOINT pelvis_right_femur
  {
    OFFSET -10.78128 -3.44521 -0.5502486
    CHANNELS 3 Zrotation Xrotation Yrotation
    JOINT right_femur_tibia
    {
      OFFSET -0.8047443 -44.0398 -0.1307829
      CHANNELS 3 Zrotation Xrotation Yrotation
      JOINT right_tibia_foot
      {
        OFFSET 3.006224 -47.83518 -5
        CHANNELS 3 Zrotation Xrotation Yrotation
        End Site
        {
          OFFSET 0 -5 15
        }
      }
    }
  }
  JOINT pelvis_left_femur
  {
    OFFSET 10.78128 -3.44521 -0.5502486
    CHANNELS 3 Zrotation Xrotation Yrotation
    JOINT left_femur_tibia
    {
      OFFSET 0.8047443 -44.0398 -0.1307829
      CHANNELS 3 Zrotation Xrotation Yrotation
      JOINT left_tibia_foot
      {
        OFFSET -4.370144 -48.10324 -4.275266
        CHANNELS 3 Zrotation Xrotation Yrotation
        End Site
        {
          OFFSET 0 -5 15
        }
      }
    }
  }
  JOINT pelvis_spine1
  {
    OFFSET 0 6.468898 -3.129235
    CHANNELS 3 Zrotation Xrotation Yrotation
    JOINT spine1
    {
      OFFSET 0 23.15396 4.99043
      CHANNELS 3 Zrotation Xrotation Yrotation
      JOINT spine2
      {
        OFFSET 0 20.79997 -5.064912
        CHANNELS 3 Zrotation Xrotation Yrotation
        JOINT neck
        {
          OFFSET 0 14.38658 9.616178
          CHANNELS 3 Zrotation Xrotation Yrotation
          End Site
          {
            OFFSET 0 20 0
          }
        }
      }
      JOINT right_manubrium
      {
        OFFSET -5.722621 16.35077 3.967754
        CHANNELS 3 Zrotation Xrotation Yrotation
        JOINT right_clavicle
        {
          OFFSET -13.16364 1.694482 -4.693211
          CHANNELS 3 Zrotation Xrotation Yrotation
          JOINT right_humerus
          {
            OFFSET -28.5034 -0.3100689 -2.792744
            CHANNELS 3 Zrotation Xrotation Yrotation
            JOINT right_radius
            {
              OFFSET -25.15693 0.02248979 -1.271978
              CHANNELS 3 Zrotation Xrotation Yrotation
              End Site
              {
                OFFSET -15 0 0
              }
            }
          }
        }
      }
      JOINT left_manubrium
      {
        OFFSET 5.722621 16.35077 3.967754
        CHANNELS 3 Zrotation Xrotation Yrotation
        JOINT left_clavicle
        {
          OFFSET 13.16364 1.694482 -4.693211
          CHANNELS 3 Zrotation Xrotation Yrotation
          JOINT left_humerus
          {
            OFFSET 29.39168 -1.063119 -2.237045
            CHANNELS 3 Zrotation Xrotation Yrotation
            JOINT left_radius
            {
              OFFSET 24.59957 -0.9528479 0.9047498
              CHANNELS 3 Zrotation Xrotation Yrotation
              End Site
              {
                OFFSET 15 -0 -0
              }
            }
          }
        }
      }
    }
  }
}
MOTION
Frames: 19
Frame Time: 0.0416666666667
-365.9887 166.5451 2956.989 -3.294886 -19.32152 -14.05207 3.118967 15.6876 -9.13856 -0 18.09931 -0 -15.51575 -1.439482 -1.585562 -4.672195 4.233339 -11.79341 -0 14.21357 -0 -6.168488 -15.72162 21.49044 0.3788691 -1.234358 8.236817 -2.073905 13.67378 -4.525706 1.36914 16.4175 1.016315 -3.111489 -18.14515 5.349916 -4.876558 -33.70076 9.249954 92.32937 23.71844 -5.273556 -0 0 30.12183 -19.42606 17.10247 22.96038 -2.816938 -16.28222 -4.974413 -89.06256 12.89578 44.32932 0 0 -28.85859 -3.50761 5.236098 28.75563
-367.2351 166.4187 2962.808 -3.295454 -19.32134 -14.05407 3.119371 15.68443 -9.139024 -0 18.09524 -0 -15.51613 -1.439877 -1.586061 -4.671957 4.234691 -11.79221 -0 14.21539 -0 -6.166748 -15.72162 21.49041 0.3787167 -1.234354 8.236803 -2.074072 13.67379 -4.525608 1.369215 16.41761 1.016442 -3.111402 -18.14498 5.350029 -4.876771 -33.70037 9.24978 92.32992 23.71883 -5.274079 -0 0 30.1209 -19.42597 17.10216 22.9605 -2.817088 -16.28227 -4.974521 -89.06211 12.89592 44.32897 0 0 -28.86003 -3.507756 5.235646 28.75658
-368.4818 166.292 2968.626 -3.296133 -19.32125 -14.05621 3.11988 15.68198 -9.139322 -0 18.09129 -0 -15.51644 -1.440545 -1.586682 -4.671622 4.235535 -11.79102 -0 14.21721 -0 -6.165113 -15.7214 21.49052 0.3785975 -1.234345 8.236793 -2.074197 13.6738 -4.525542 1.369269 16.4177 1.016533 -3.111341 -18.14485 5.350112 -4.876935 -33.70008 9.249656 92.33034 23.71915 -5.27448 -0 0 30.12022 -19.42588 17.1019 22.96057 -2.8172 -16.2823 -4.974594 -89.06176 12.896 44.32871 0 0 -28.86111 -3.507845 5.23533 28.75724
-369.7288 166.1652 2974.444 -3.296927 -19.32124 -14.05851 3.120474 15.6803 -9.13945 -0 18.08758 -0 -15.51668 -1.441458 -1.587401 -4.671203 4.235862 -11.78987 -0 14.21898 -0 -6.163631 -15.721 21.49074 0.3785141 -1.234331 8.236786 -2.074277 13.67379 -4.525508 1.369302 16.41775 1.016586 -3.111305 -18.14476 5.350162 -4.877047 -33.6999 9.249583 92.33062 23.71938 -5.274752 -0 0 30.11979 -19.42582 17.10171 22.9606 -2.817272 -16.2823 -4.974632 -89.0615 12.89604 44.32853 0 0 -28.8618 -3.507875 5.235153 28.75761
-370.9761 166.0383 2980.262 -3.297837 -19.32131 -14.06098 3.121134 15.67942 -9.139411 -0 18.0842 -0 -15.51684 -1.44258 -1.588195 -4.670715 4.235679 -11.7888 -0 14.22065 -0 -6.16234 -15.72041 21.49108 0.3784679 -1.234313 8.236783 -2.074311 13.67378 -4.525507 1.369314 16.41778 1.0166 -3.111296 -18.14471 5.35018 -4.877105 -33.69983 9.249564 92.33076 23.71953 -5.27489 -0 0 30.11962 -19.42577 17.10158 22.96057 -2.817303 -16.28227 -4.974634 -89.06134 12.89603 44.32845 0 0 -28.8621 -3.507847 5.235117 28.75768
-372.2237 165.9112 2986.08 -3.298859 -19.32145 -14.06362 3.121837 15.67933 -9.13921 -0 18.08125 -0 -15.51692 -1.443872 -1.589036 -4.670175 4.235008 -11.78783 -0 14.22216 -0 -6.161274 -15.71968 21.49152 0.378459 -1.234291 8.236784 -2.0743 13.67376 -4.525537 1.369304 16.41778 1.016577 -3.111312 -18.1447 5.350165 -4.877108 -33.69986 9.249596 92.33075 23.71958 -5.274894 -0 0 30.1197 -19.42573 17.10152 22.9605 -2.817293 -16.28223 -4.974603 -89.06128 12.89597 44.32846 0 0 -28.86201 -3.507764 5.23522 28.75747
-373.4715 165.7841 2991.898 -3.299987 -19.32163 -14.06643 3.122561 15.68003 -9.138859 -0 18.0788 -0 -15.51691 -1.445289 -1.589899 -4.669601 4.233883 -11.78699 -0 14.22349 -0 -6.160457 -15.71882 21.49204 0.3784865 -1.234267 8.236788 -2.074246 13.67374 -4.525597 1.369274 16.41776 1.016518 -3.111353 -18.14473 5.35012 -4.877059 -33.7 9.249676 92.33061 23.71956 -5.274768 -0 0 30.12002 -19.42572 17.10153 22.9604 -2.817244 -16.28216 -4.974539 -89.06133 12.89586 44.32855 0 0 -28.86154 -3.507631 5.235452 28.75698
-374.7197 165.6569 2997.716 -3.30121 -19.32187 -14.06941 3.123285 15.68145 -9.138372 -0 18.07691 -0 -15.51683 -1.446787 -1.590758 -4.669011 4.232353 -11.78629 -0 14.22459 -0 -6.159906 -15.71787 21.49262 0.3785485 -1.234241 8.236796 -2.074151 13.67371 -4.525683 1.369225 16.41771 1.016427 -3.111417 -18.1448 5.350046 -4.87696 -33.70023 9.249802 92.33034 23.71945 -5.27452 -0 0 30.12057 -19.42573 17.1016 22.96025 -2.817159 -16.28207 -4.974446 -89.06147 12.89572 44.32873 0 0 -28.86072 -3.507452 5.235804 28.75623
-375.9681 165.5297 3003.534 -3.302518 -19.32213 -14.07255 3.123985 15.68354 -9.137769 -0 18.07562 -0 -15.51668 -1.448318 -1.591585 -4.668423 4.230476 -11.78577 -0 14.22544 -0 -6.159628 -15.71686 21.49324 0.378642 -1.234215 8.236807 -2.07402 13.67367 -4.525793 1.36916 16.41763 1.016306 -3.1115 -18.1449 5.349946 -4.876817 -33.70055 9.249968 92.32995 23.71926 -5.274162 -0 0 30.12132 -19.42575 17.10173 22.96007 -2.817041 -16.28197 -4.974327 -89.0617 12.89554 44.32898 0 0 -28.85959 -3.507234 5.23626 28.75527
-377.2168 165.4025 3009.352 -3.303895 -19.32241 -14.07582 3.124643 15.68621 -9.137072 -0 18.07495 -0 -15.51646 -1.449834 -1.592358 -4.667854 4.22832 -11.78542 -0 14.22602 -0 -6.159625 -15.71581 21.49389 0.3787632 -1.234187 8.23682 -2.073858 13.67363 -4.525923 1.36908 16.41753 1.016161 -3.1116 -18.14504 5.349826 -4.876634 -33.70094 9.250167 92.32945 23.719 -5.273707 -0 0 30.12225 -19.42579 17.10192 22.95987 -2.816895 -16.28185 -4.974186 -89.06202 12.89533 44.3293 0 0 -28.85818 -3.506986 5.236805 28.75412
-378.4657 165.2753 3015.17 -3.305326 -19.32269 -14.07922 3.125239 15.68936 -9.136303 -0 18.0749 -0 -15.51619 -1.451292 -1.593056 -4.667322 4.225957 -11.78526 -0 14.22632 -0 -6.159886 -15.71476 21.49455 0.3789077 -1.234161 8.236835 -2.07367 13.67359 -4.526067 1.368989 16.41742 1.015997 -3.111713 -18.1452 5.349687 -4.876419 -33.7014 9.250393 92.32888 23.71869 -5.273173 -0 0 30.12332 -19.42584 17.10215 22.95965 -2.816726 -16.28173 -4.974029 -89.06239 12.8951 44.32966 0 0 -28.85656 -3.506716 5.237419 28.75283
-379.7149 165.1482 3020.988 -3.306793 -19.32297 -14.08271 3.125757 15.69289 -9.13549 -0 18.07545 -0 -15.51586 -1.452649 -1.593659 -4.66684 4.223464 -11.78528 -0 14.22635 -0 -6.160397 -15.71375 21.49518 0.3790703 -1.234136 8.236852 -2.073463 13.67356 -4.526222 1.36889 16.4173 1.015818 -3.111836 -18.14538 5.349536 -4.876179 -33.70189 9.250638 92.32824 23.71832 -5.272577 -0 0 30.12449 -19.42591 17.10242 22.95942 -2.81654 -16.2816 -4.973861 -89.06283 12.89486 44.33007 0 0 -28.85477 -3.506432 5.238081 28.75144
-380.9643 165.0211 3026.806 -3.30828 -19.32322 -14.08627 3.126185 15.69667 -9.134656 -0 18.07656 -0 -15.5155 -1.453868 -1.594152 -4.666422 4.220922 -11.78547 -0 14.2261 -0 -6.161133 -15.71279 21.49579 0.3792457 -1.234113 8.23687 -2.073244 13.67352 -4.526382 1.368785 16.41716 1.015632 -3.111965 -18.14557 5.349378 -4.875921 -33.70242 9.250894 92.32755 23.71792 -5.271939 -0 0 30.12573 -19.42598 17.10272 22.95919 -2.816343 -16.28147 -4.973687 -89.0633 12.89461 44.33051 0 0 -28.85288 -3.506143 5.23877 28.74999
-382.214 164.8941 3032.624 -3.309769 -19.32344 -14.08989 3.126513 15.70059 -9.133829 -0 18.07819 -0 -15.51512 -1.454918 -1.594525 -4.666079 4.218407 -11.78583 -0 14.2256 -0 -6.162067 -15.71193 21.49634 0.3794281 -1.234093 8.236889 -2.07302 13.67348 -4.526542 1.368679 16.41702 1.015443 -3.112094 -18.14577 5.349217 -4.875655 -33.70295 9.251153 92.32685 23.7175 -5.27128 -0 0 30.12699 -19.42607 17.10304 22.95896 -2.816141 -16.28135 -4.973513 -89.0638 12.89437 44.33096 0 0 -28.85094 -3.505858 5.239465 28.74853
-383.4639 164.7673 3038.441 -3.311242 -19.32361 -14.09352 3.126733 15.70453 -9.133032 -0 18.08027 -0 -15.51472 -1.45577 -1.594769 -4.665817 4.215993 -11.78633 -0 14.22486 -0 -6.163162 -15.71118 21.49682 0.3796119 -1.234076 8.236907 -2.072797 13.67345 -4.526697 1.368574 16.41688 1.015258 -3.112222 -18.14597 5.349057 -4.875388 -33.70348 9.251407 92.32614 23.71707 -5.270621 -0 0 30.12824 -19.42616 17.10337 22.95874 -2.815941 -16.28123 -4.973343 -89.06431 12.89413 44.3314 0 0 -28.84901 -3.505585 5.240145 28.74709
-384.714 164.6406 3044.259 -3.312683 -19.32374 -14.09715 3.126843 15.70836 -9.132288 -0 18.08272 -0 -15.51432 -1.456407 -1.594882 -4.665644 4.213751 -11.78697 -0 14.22393 -0 -6.164383 -15.71056 21.49723 0.3797916 -1.234063 8.236924 -2.072583 13.67341 -4.526844 1.368474 16.41675 1.015082 -3.112343 -18.14617 5.348905 -4.875129 -33.70399 9.251649 92.32546 23.71665 -5.26998 -0 0 30.12945 -19.42625 17.1037 22.95854 -2.815748 -16.28112 -4.973183 -89.06481 12.89391 44.33184 0 0 -28.84716 -3.505333 5.24079 28.74574
-385.9644 164.514 3050.077 -3.314079 -19.3238 -14.10074 3.126843 15.71197 -9.131619 -0 18.08546 -0 -15.51394 -1.456816 -1.594863 -4.665561 4.211742 -11.7877 -0 14.22283 -0 -6.165687 -15.71008 21.49755 0.3799618 -1.234053 8.236941 -2.072383 13.67339 -4.526977 1.368381 16.41662 1.014919 -3.112454 -18.14636 5.348764 -4.874885 -33.70447 9.251872 92.32482 23.71624 -5.269378 -0 0 30.13057 -19.42634 17.10402 22.95836 -2.815568 -16.28103 -4.973038 -89.06528 12.89371 44.33224 0 0 -28.84543 -3.505108 5.241381 28.74449
-387.215 164.3875 3055.895 -3.315415 -19.3238 -14.10429 3.126735 15.71527 -9.131041 -0 18.0884 -0 -15.51358 -1.45699 -1.594718 -4.665567 4.210018 -11.78852 -0 14.22159 -0 -6.167035 -15.70976 21.49777 0.3801179 -1.234048 8.236956 -2.072203 13.67337 -4.527094 1.368298 16.4165 1.014775 -3.112553 -18.14653 5.348638 -4.874663 -33.70489 9.25207 92.32424 23.71586 -5.26883 -0 0 30.13158 -19.42642 17.10431 22.9582 -2.815405 -16.28095 -4.97291 -89.06573 12.89354 44.33261 0 0 -28.84387 -3.504915 5.241903 28.7434
-388.4659 164.2612 3061.713 -3.316681 -19.32374 -14.10776 3.126528 15.71816 -9.13057 -0 18.09145 -0 -15.51325 -1.456934 -1.594456 -4.665661 4.208624 -11.7894 -0 14.22027 -0 -6.168383 -15.70959 21.49789 0.3802555 -1.234047 8.236969 -2.072047 13.67335 -4.527191 1.368227 16.4164 1.014653 -3.112637 -18.14668 5.348531 -4.874468 -33.70526 9.252238 92.32373 23.71551 -5.268351 -0 0 30.13244 -19.42651 17.10458 22.95808 -2.815265 -16.28089 -4.972804 -89.06612 12.8934 44.33293 0 0 -28.84252 -3.50476 5.242343 28.74247
